<?xml version="1.0" encoding="UTF-8"?><svg id="Layer_1" xmlns="http://www.w3.org/2000/svg" width="360" height="648" viewBox="0 0 360 648"><defs><style>.cls-1,.cls-2,.cls-3{fill:none;}.cls-4{fill:#6a4400;}.cls-5{fill:#ffe294;}.cls-6{fill:#fff;}.cls-7{fill:#fff1d4;}.cls-8{fill:#ffab74;}.cls-9{fill:#6aa9ff;}.cls-10{fill:#3573ff;}.cls-11{fill:#94caff;}.cls-12{fill:#587400;}.cls-13{fill:#82b135;}.cls-14{fill:#7f4f00;}.cls-14,.cls-2{stroke:#7f4f00;stroke-linecap:round;stroke-width:2px;}.cls-14,.cls-2,.cls-3{stroke-miterlimit:10;}.cls-3{stroke:#ffdf8a;}.cls-15{fill:#945700;opacity:.48;}</style></defs><path class="cls-1" d="M146.34,1.8l.23,.23"/><path class="cls-12" d="M182,2.35c.28-.04,.51-.09,.67-.12,.36-.09,.62-.18,.93-.29,.22-.08,.41-.15,.59-.22,.19-.07,.34-.14,.46-.18"/><path class="cls-12" d="M180.85,3.46c.38-.05,.68-.12,.9-.17,.48-.12,.84-.24,1.25-.39,.3-.11,.55-.2,.79-.3,.25-.1,.46-.19,.62-.25"/><path class="cls-12" d="M182.67,1.87c-.05-.2-.08-.36-.1-.48-.04-.25-.05-.44-.07-.66,0-.15-.01-.29-.02-.41,0-.13,0-.24,0-.32"/><path class="cls-12" d="M180.27,4.21c-.07-.28-.11-.51-.14-.67-.06-.36-.08-.63-.1-.93-.01-.22-.02-.41-.03-.58,0-.19,0-.34-.01-.45"/><path class="cls-12" d="M181.62,2.91c-.05-.2-.08-.36-.1-.48-.04-.25-.05-.44-.07-.66,0-.15-.01-.29-.02-.41,0-.13,0-.24,0-.32"/><g><polygon class="cls-7" points="52.88 542.58 52.08 544.32 51.51 546.3 51.53 548.04 51.17 549.63 51.19 551.45 51.21 553.19 51.72 555.24 52.15 556.58 53.06 557.84 54.08 558.7 55.33 559.78 57.17 561.6 60.4 563.47 64.28 565.03 67.21 566.19 71.59 567.42 75.4 568.89 80.09 570.44 84.03 571.12 88.35 571.96 92.22 572.48 95.88 572.93 98.72 572.89 102.52 572.84 106.17 572.79 111.57 572.72 115.45 573.01 119.9 572.96 124.85 570.73 127.39 568.81 129.71 566.5 130.58 564.91 131.66 563.56 132.89 561.33 133.68 559.43 134.39 557.14 135.03 554.99 135.38 553.01 135.38 552.3 133.35 553.81 127.88 556 123.14 556.9 117.89 557.36 114.82 557.4 111.9 557.43 108.04 557.49 104.09 557.21 98.47 557.01 93.34 556.66 85.39 556.09 79.02 554.4 72.07 552.55 67.97 550.45 64.02 548.98 59.77 546.72 55.95 544.53 52.88 542.58"/><g><path class="cls-1" d="M82.37,141.48l.71,.74"/><path class="cls-12" d="M183.18,139.44c.64-.09,1.16-.2,1.53-.29,.82-.2,1.43-.42,2.13-.67,.5-.18,.93-.35,1.35-.52,.43-.17,.79-.32,1.05-.43"/><path class="cls-12" d="M180.53,142.01c.87-.12,1.57-.27,2.06-.39,1.11-.27,1.93-.57,2.88-.91,.68-.24,1.26-.48,1.82-.7,.58-.23,1.07-.43,1.41-.58"/><path class="cls-12" d="M184.72,138.31c-.12-.47-.19-.84-.23-1.11-.1-.59-.12-1.03-.16-1.53-.02-.36-.03-.67-.04-.96,0-.31-.01-.56-.02-.75"/><path class="cls-12" d="M182.31,140.73c-.12-.47-.19-.84-.23-1.11-.1-.59-.12-1.03-.16-1.53-.02-.36-.03-.67-.04-.96,0-.31-.01-.56-.02-.75"/><polygon class="cls-5" points="114.38 279.35 105.2 272.66 99.72 266.56 99.72 259.92 99.72 254.43 96.27 244.01 92.51 241.4 89.78 228.67 88.12 223.75 85.92 218.25 82.05 209.85 78.45 204.34 74 199.99 69.83 197.37 64.77 197.37 62 199.35 60.31 202.52 59.16 210.6 59.16 216.67 64.77 227.38 59.16 226.78 54.89 228.78 50.13 231.07 46.76 235.96 43.95 239.7 41.7 243.74 40 252.11 40 258.36 43.01 261.37 47.46 263.41 54.72 263.16 54.14 268.36 54.96 271.83 56.9 274.15 59.13 276.67 66.09 279.35 73.35 279.35 78.61 287.55 81.11 291.03 87.21 299.08 90.26 302.63 96.27 309.19 99.72 305.32 104.19 300.31 108.31 294.9 112.01 289.81 114.97 285.69 117.72 281.36 114.38 279.35"/><polygon class="cls-5" points="245.33 275.48 249.29 271.96 252.33 268.98 254.9 266.14 257.88 263.43 261.58 258.68 261.58 254.74 262.28 250.93 263.47 247.8 264.93 245.23 266.65 242.51 269.56 240.49 272.06 239.14 274.43 238.47 278.24 238.47 279.05 234.55 280.65 229.65 282.77 226.67 285.02 223.01 289.65 218 293.87 214.34 297.57 211.1 300.34 208.8 302.45 207.99 304.29 207.99 306.66 207.99 308.76 208.57 310.07 209.66 311.37 212.8 311.37 215.52 311.37 218.38 310.41 220.82 308.82 223.4 306.96 227.34 304.71 230.73 311.37 235.26 313.62 237.44 315.31 240.45 316.75 243.18 318.18 245.5 319.22 248.09 320 250.54 320 252.99 320 256.12 320 258.84 318.9 260.61 316.53 262.09 312.58 263.16 308.37 263.28 308.22 266 308.21 269.81 308.06 273.07 307.52 275.48 306.32 278.65 304.34 281.49 302.62 283.32 300.25 283.32 296.57 283.9 293.68 282.26 290.02 278.97 286.98 282.09 283.94 285.74 279.32 289.8 274.03 294.54 270.46 298.47 266.11 302.26 263.73 304.56 260.32 308.72 257.2 303.38 254.39 297.93 252.2 294 250.22 290.4 248.14 285.83 245.65 281.36 243.25 276.67 245.33 275.48"/><polygon class="cls-11" points="99.72 366.28 124.01 366.28 152.29 366.28 192.9 366.28 216.83 366.28 246.92 366.28 254.9 366.28 254.9 359.6 252.45 347.95 250.3 341.93 246.37 329.15 244.94 325.39 250.04 320.17 254.9 315.31 248.66 305.9 246.14 302.13 243.27 296.11 240.75 291.6 238.96 287.46 236.8 283.32 231.72 285.55 226.26 288.52 220.09 291.12 213.91 293.71 206.46 295.93 199.03 297.76 193.95 298.86 188.5 299.59 175.45 299.9 167.11 299.85 159.14 299.06 151.54 296.77 133.8 290.68 123.67 286.5 121.11 289.86 110.88 306.7 107.23 311.93 103.95 316.8 107.92 319.82 107.17 324.8 105.33 331.06 103.49 336.68 101.65 343.05 99.72 353.82 99.72 366.28"/><polygon class="cls-5" points="89.5 446.8 86.91 454.23 85.27 459.26 82.92 464.77 81.51 469.8 79.62 475.55 78.21 480.1 77.26 485.86 76.29 494.49 76.29 498.33 81.61 497.16 86.25 495.98 91.12 495.29 95.99 495.31 100.16 495.33 104.8 495.84 108.97 495.86 112.68 497.08 117.08 498.33 121.24 499.76 125.41 501.22 128.65 502.68 130.96 504.37 130.96 499.33 132.39 495.02 133.57 490.7 135.47 481.59 136.42 477.04 137.37 471.76 138.56 462.17 140.45 456.16 89.5 446.8"/><polygon class="cls-10" points="106.76 366.32 103.8 373.12 99.83 379.92 97.88 386.34 95.2 393.9 92.32 402.97 90.46 409.78 88.59 417.72 87.09 426.04 85.59 433.98 84.45 444.04 87.92 446.19 91.53 447.55 95.2 448.77 99.01 449.86 103.9 451.08 108.16 451.77 113.06 452.47 117.71 453.02 122.48 453.58 127 453.58 132.67 455.24 137.83 456.07 143.63 457.03 144.94 452.9 145.73 449.16 146.27 446.09 146.92 443.15 146.92 438.88 147.87 435.28 147.87 431.94 147.87 428.33 148.82 424.99 148.82 423.26 157.34 423.57 165.86 423.48 174.9 423.39 183.1 423.3 195.42 423.49 195.42 427.64 195.42 434.05 195.99 440.33 196.74 444.34 196.74 447.28 198.52 451.43 199.28 454.64 200.54 460.66 209.57 460.66 216.29 460.66 221.58 460.66 226.1 460.66 233.71 459.9 239.01 459.52 244.56 458.21 249.34 457.7 252.57 457.45 254.9 455.86 254.9 450.52 254.9 445.57 254.9 440.76 254.9 436.35 254.12 430.21 253.62 425.66 253.4 419.65 252.55 407.75 252.44 402.41 251.57 395.59 250.84 386.77 249.45 379.81 248.58 374.33 248.34 370.86 247.32 366.98 246.56 365.1 106.76 366.32"/><polygon class="cls-15" points="71.09 504.37 68.93 506.68 66.89 509.03 64.59 512.17 62.55 514.66 60.5 518.58 58.97 521.2 57.3 524.34 55.89 527.62 54.48 530.5 53.32 533.78 52.8 536.79 52.8 539.16 52.8 541.26 53.38 541.98 54.17 542.97 56.7 545.08 58.59 546.14 61.63 547.87 64.79 549.33 67.2 550.65 69.85 551.85 74.39 553.58 79.48 554.92 85.56 556.92 88.98 557.59 92.53 557.59 95.57 557.59 98.66 557.59 103.18 558.19 109.14 558.74 114.21 558.74 117.51 558.74 119.92 558.74 123.48 557.77 126.27 557.26 128.69 556.35 131.1 555.18 133.14 554.01 136.7 551.53 137.39 538.93 137.39 536.7 137.39 532.1 137.39 528.56 137.39 524.49 136.46 520.94 136.1 517.53 135.23 514.11 133.72 510.29 131.84 507 130.96 504.37 128.65 502.68 125.41 501.22 121.24 499.76 117.08 498.33 112.68 497.08 108.97 495.86 103.69 495.72 98.03 495.32 94.6 495.3 89.15 495.3 84.73 496.37 81.61 497.16 76.29 498.33 71.09 504.37"/><polygon class="cls-5" points="208.5 460.66 207.54 473.62 207.54 482.08 207.54 489.61 207.54 496.34 207.54 502.71 207.54 508.74 208.02 512.45 211.62 510.84 215.1 508.54 218.35 507.05 222.73 505.8 225.98 505.24 230.23 504.91 233.48 504.7 236.73 504.71 240.87 504.74 244.23 505.22 247.58 505.81 250.82 506.52 252.39 507.11 252.39 499.46 252.39 491.58 252.39 484.98 252.39 479.3 252.39 473.15 251.35 465.85 250.93 461.68 250.7 457.69 245.09 458.26 238.73 459.06 233.25 459.5 226.08 459.81 220.48 460.13 214.66 460.22 208.5 460.66"/><polygon class="cls-15" points="207.54 513.6 204.64 517.41 203.18 519.96 201.93 522.5 200.35 525.62 199.22 528.16 198.2 530.71 197.18 533.83 196.38 536.84 195.47 540.31 194.66 544.25 193.98 547.38 193.98 550.39 193.39 553.4 193.39 554.91 195.61 556.54 198.63 558.18 201.09 559.35 203.88 560.75 207.01 561.93 209.09 562.87 214.72 564.29 218.64 565 221.77 565.6 227.25 566.32 231.5 566.32 236.43 566.32 241.25 566.32 244.83 566.32 248.41 566.32 253.12 566.32 256.7 565.43 260.96 564.75 263.99 563.61 267.47 562.12 270.05 560.86 272.29 559.25 275.1 557.41 275.1 552.66 274.47 548.83 273.7 545.58 272.6 542.21 271.28 538.15 270.17 534.55 268.96 530.84 267.52 526.77 266.42 522.83 264.98 519.23 262.99 515.51 260.2 512.45 257.63 510.73 254.17 508.4 252.39 507.11 249 506.12 245.22 505.39 239.08 504.73 233.48 504.7 229.22 504.7 224.45 505.5 219.75 506.66 215.1 508.54 209.09 511.97 207.54 513.6"/><polygon class="cls-9" points="103.07 315.2 99.19 312.57 96.27 309.19 104.19 300.31 108.31 294.9 112.01 289.81 114.97 285.69 117.72 281.36 120.55 283.32 123.67 286.5 121.11 289.86 118.08 294.19 115.36 299.33 112.5 304.03 109.24 309.05 107.23 311.93 103.95 316.8 103.07 315.2"/><polygon class="cls-9" points="237.76 282.3 240.09 279.92 243.25 276.67 245.65 281.36 248.14 285.83 250.22 290.4 252.2 294 254.39 297.93 255.85 300.76 257.2 303.38 259.28 306.87 260.32 308.72 258.32 310.67 254.9 315.31 251.91 311.07 248.66 305.9 246.14 302.13 243.27 296.11 240.75 291.6 238.96 287.46 236.8 283.32 237.76 282.3"/><ellipse class="cls-5" cx="178.83" cy="222.32" rx="86.02" ry="80.34"/><ellipse class="cls-2" cx="128.37" cy="236.36" rx=".77" ry=".85"/><ellipse class="cls-2" cx="134.46" cy="235.19" rx=".79" ry=".87"/><ellipse class="cls-2" cx="138.19" cy="240.92" rx=".79" ry=".87"/><ellipse class="cls-2" cx="230.87" cy="235.51" rx=".79" ry=".87"/><ellipse class="cls-14" cx="225.79" cy="233.67" rx=".79" ry=".87"/><ellipse class="cls-2" cx="221.1" cy="238.46" rx=".79" ry=".87"/><path class="cls-2" d="M174.49,233.32c1.03,5.03,3.81,8.64,7.09,8.64s6.1-3.66,7.11-8.75"/><path class="cls-4" d="M178.22,141.86c-.8-3.27-1.57-7.38-1.96-12.22-.32-3.96-.6-7.42,.02-12.29,.45-3.51,1.04-7.82,3.63-13.55,2.2-4.87,5.02-8.91,7.23-11.73"/><polyline class="cls-4" points="235.08 145.22 234.66 143.42 233.99 142.05 233.31 141.04"/><polyline class="cls-4" points="235.08 145.22 234.66 143.42 233.99 142.05 233.31 141.04"/><path class="cls-13" d="M211.54,110.33c-7.59,3.93-13.98,6.44-18.48,8.01-6.49,2.27-9.91,2.91-12.96,6.51-.59,.7-5.64,6.84-3.43,13.39,2.03,6.05,9.08,8.96,14.5,8.23,6.07-.82,9.58-6.13,12.32-10.28,2.92-4.41,4.17-8.68,4.76-11.39"/><path class="cls-12" d="M187.15,137.97c1.68-.12,3.04-.31,4-.48,2.15-.37,3.77-.83,5.63-1.36,1.33-.38,2.47-.75,3.57-1.1,1.14-.37,2.09-.69,2.78-.92"/><path class="cls-12" d="M211.31,110.67c-1.24,1.31-3.07,3.24-5.29,5.58-2.93,3.09-4.39,4.63-5.67,5.98-3.74,3.93-3.95,4.09-7.79,8.13-3.09,3.25-4.64,4.88-6.6,7.13-.65,.75-1.6,1.86-2.76,3.26-1.23,1.51-2.09,2.82-2.15,3.21-.04,.3,.28,.12,.28,.12,.19-.1,.41-.29,.64-.49,.16-.14,.38-.34,.86-.82,.77-.77,1.4-1.45,1.58-1.64,.77-.83,1.36-1.51,1.52-1.69,1.59-1.83,3.18-3.6,4.77-5.42,.41-.47,2.61-2.96,6.99-7.95,1.45-1.65,3.59-4.07,6.21-7.05"/><path class="cls-12" d="M192.8,130.89c1.43-.12,2.6-.3,3.42-.46,1.84-.34,3.22-.76,4.81-1.23,1.13-.34,2.11-.67,3.05-.98,.97-.33,1.79-.61,2.37-.82"/><path class="cls-12" d="M184.46,140.4c1.8-.02,3.28-.15,4.32-.27,2.34-.26,4.11-.66,6.15-1.12,1.46-.33,2.71-.65,3.92-.96,1.26-.32,2.3-.61,3.06-.82"/><path class="cls-12" d="M190.25,134.45c1.55-.1,2.81-.27,3.7-.42,2-.33,3.5-.75,5.22-1.23,1.23-.34,2.29-.68,3.31-1,1.06-.33,1.94-.62,2.58-.84"/><path class="cls-12" d="M201.57,120.83c.75-.1,1.36-.23,1.79-.34,.96-.23,1.68-.49,2.5-.79,.59-.21,1.09-.41,1.58-.61,.5-.2,.92-.37,1.23-.5"/><path class="cls-12" d="M198.47,123.85c1.02-.14,1.84-.32,2.42-.46,1.3-.31,2.27-.66,3.38-1.06,.8-.29,1.48-.56,2.13-.82,.68-.27,1.25-.5,1.66-.68"/><path class="cls-12" d="M194.23,128.03c1.43-.2,2.59-.45,3.4-.64,1.83-.44,3.19-.93,4.75-1.5,1.12-.4,2.08-.78,3-1.15,.96-.38,1.76-.71,2.33-.95"/><path class="cls-12" d="M182.52,143.33c1.84,0,3.35-.1,4.41-.2,2.38-.23,4.19-.61,6.26-1.04,1.48-.31,2.76-.62,3.99-.92,1.28-.31,2.34-.58,3.11-.78"/><path class="cls-12" d="M203.38,119.51c-.14-.55-.22-.99-.27-1.29-.11-.69-.15-1.21-.18-1.79-.03-.42-.04-.78-.05-1.13-.01-.36-.02-.66-.02-.88"/><path class="cls-12" d="M194.29,129.14c-.24-.96-.39-1.74-.48-2.28-.2-1.22-.26-2.13-.32-3.16-.05-.74-.07-1.38-.09-1.99-.02-.63-.03-1.16-.04-1.54"/><path class="cls-12" d="M196.92,125.9c-.19-.77-.31-1.39-.38-1.83-.16-.98-.21-1.7-.26-2.53-.04-.59-.05-1.1-.07-1.59-.02-.51-.02-.93-.03-1.24"/><path class="cls-12" d="M200.55,122.34c-.14-.55-.22-.99-.27-1.29-.11-.69-.15-1.21-.18-1.79-.03-.42-.04-.78-.05-1.13-.01-.36-.02-.66-.02-.88"/><path class="cls-12" d="M182.32,142.35c-.46-1.75-.73-3.19-.9-4.2-.38-2.28-.48-4.02-.6-6.02-.08-1.43-.12-2.66-.15-3.85-.03-1.23-.05-2.26-.06-3.01"/><path class="cls-12" d="M187.92,135.92c-.34-1.31-.55-2.39-.67-3.15-.28-1.71-.36-3.02-.45-4.51-.06-1.07-.09-2-.11-2.89-.03-.92-.04-1.7-.04-2.25"/><path class="cls-12" d="M185.05,138.78c-.42-1.62-.67-2.95-.83-3.89-.35-2.11-.44-3.72-.55-5.56-.08-1.32-.11-2.46-.14-3.56-.03-1.14-.05-2.09-.05-2.78"/><path class="cls-12" d="M191.04,132.76c-.31-1.19-.49-2.16-.61-2.85-.25-1.55-.32-2.73-.4-4.08-.06-.97-.08-1.8-.1-2.61-.02-.84-.03-1.53-.04-2.04"/><ellipse class="cls-6" cx="153.73" cy="202.43" rx="15.19" ry="25.24"/><ellipse cx="156.35" cy="211.2" rx="10.28" ry="16.51"/><path class="cls-2" d="M198.06,205.07c1.08-6.7,5.49-11.52,10.55-11.52s9.27,4.58,10.47,11.06"/><path class="cls-8" d="M198.44,247.33c2.36,1.22,1.66,7.16,1.48,8.72-.93,7.93-6.4,21.35-16.96,22.21-11.9,.97-20.06-14.85-20.16-25.05-.01-1.48-.05-5.38,1.86-6.31,3.63-1.77,8.54,9.95,16.75,10.1,8.25,.16,13.47-11.51,17.04-9.66Z"/><path class="cls-2" d="M143,168.93c.67-2.55,3.96-4.56,7.85-4.79s7.25,1.28,8.33,3.64"/><path class="cls-2" d="M200.33,170.19c.95-2.46,4.46-4.07,8.4-3.86s7.14,2.1,7.98,4.58"/><path class="cls-3" d="M278.12,238.46c2.17,.87,4.17,2.17,5.86,3.82,2.16,2.1,3.84,4.8,4.44,7.81,.6,3,.03,6.31-1.8,8.72s-4.99,3.77-7.88,3.09"/><path class="cls-3" d="M92.81,241.48c-3.64-1.13-7.45-1.84-11.18-1.2s-7.39,2.75-9.55,6.34c-1.62,2.7-2.29,6.03-2.45,9.32-.16,3.45,.6,7.58,3.36,8.9,1.23,.59,2.61,.48,3.93,.36"/></g><polygon class="cls-7" points="192.44 554.94 192.44 563.26 192.44 567.68 192.91 572.11 195.41 574.86 199.03 577.22 203.32 578.28 210 579.49 213.96 580.29 218.82 580.84 223.69 581.39 229.89 582.07 235.12 582.07 240.67 582.07 245.76 582.07 251.88 581.55 257.54 580.93 262.76 579.14 267.75 575.78 271.62 571.77 273.33 568.5 274.6 563.08 274.6 559.31 275.53 556.32 272.69 558.38 270.42 560.19 267.81 561.61 264.3 563.28 261.23 564.56 256.93 565.32 253.3 566.32 248.55 566.32 244.92 566.32 241.3 566.32 236.43 566.32 231.45 566.32 227.15 566.32 221.61 565.51 218.44 564.84 214.48 564.04 208.79 562.45 206.68 561.39 203.52 560.07 200.69 558.49 198.21 557.18 195.16 555.34 192.91 553.51 192.44 554.94"/></g></svg>