<?xml version="1.0" encoding="UTF-8"?><svg id="Layer_1" xmlns="http://www.w3.org/2000/svg" width="360" height="360" viewBox="0 0 360 360"><defs><style>.cls-1{fill:none;stroke:#4a3200;stroke-linecap:round;stroke-miterlimit:10;stroke-width:3px;}.cls-2{fill:#6a4400;}.cls-3{fill:#df3800;}.cls-4{fill:#587400;}.cls-5{fill:#82b135;}</style></defs><path class="cls-3" d="M320,205.01c0,62.13-46.05,112.49-102.86,112.49-13.09,0-25.62-2.68-37.14-7.56-11.52,4.88-24.05,7.56-37.14,7.56-56.8,0-102.85-50.37-102.85-112.49s46.05-112.5,102.85-112.5c13.09,0,25.62,2.68,37.14,7.56,11.52-4.88,24.05-7.56,37.14-7.56,56.81,0,102.86,50.37,102.86,112.5Z"/><line class="cls-1" x1="179.7" y1="309.75" x2="172.16" y2="314.8"/><line class="cls-1" x1="176.87" y1="316.34" x2="179.7" y2="309.75"/><line class="cls-1" x1="182.84" y1="315.79" x2="178.8" y2="310.17"/><line class="cls-1" x1="186.13" y1="315" x2="179.7" y2="309.75"/><path class="cls-2" d="M175.34,99.89c-1.1-4.1-2.17-9.24-2.71-15.31-.44-4.96-.83-9.3,.03-15.41,.62-4.39,1.44-9.8,5.02-16.98,3.05-6.11,6.93-11.16,9.99-14.7"/><path class="cls-5" d="M221.36,60.38c-10.49,4.93-19.32,8.07-25.53,10.04-8.96,2.84-13.69,3.65-17.89,8.15-.82,.87-7.78,8.57-4.74,16.78,2.81,7.59,12.55,11.23,20.03,10.31,8.38-1.02,13.23-7.68,17.02-12.89,4.03-5.53,5.76-10.88,6.58-14.27"/><path class="cls-4" d="M187.67,95.02c2.31-.15,4.19-.39,5.52-.6,2.97-.46,5.21-1.04,7.77-1.71,1.83-.48,3.41-.94,4.93-1.38,1.58-.46,2.89-.86,3.84-1.15"/><path class="cls-4" d="M221.04,60.81c-1.72,1.65-4.24,4.06-7.31,7-4.04,3.87-6.06,5.8-7.83,7.49-5.17,4.93-5.45,5.13-10.77,10.19-4.27,4.07-6.42,6.12-9.11,8.93-.9,.94-2.21,2.33-3.81,4.09-1.7,1.9-2.89,3.53-2.97,4.02-.06,.37,.39,.15,.39,.15,.26-.13,.57-.37,.88-.62,.22-.17,.53-.43,1.19-1.03,1.06-.96,1.94-1.82,2.18-2.06,1.06-1.04,1.88-1.9,2.1-2.12,2.2-2.29,4.39-4.51,6.59-6.8,.57-.59,3.6-3.72,9.66-9.96,2-2.06,4.95-5.1,8.58-8.84"/><path class="cls-4" d="M195.48,86.14c1.98-.15,3.59-.38,4.72-.57,2.54-.43,4.45-.95,6.64-1.54,1.57-.43,2.91-.84,4.21-1.23,1.34-.41,2.47-.77,3.27-1.03"/><path class="cls-4" d="M183.96,98.06c2.49-.03,4.53-.19,5.97-.33,3.23-.33,5.68-.83,8.49-1.4,2.01-.41,3.75-.82,5.42-1.21,1.73-.41,3.18-.76,4.23-1.02"/><path class="cls-4" d="M191.96,90.61c2.14-.12,3.89-.34,5.11-.53,2.76-.41,4.83-.94,7.21-1.54,1.7-.43,3.16-.85,4.57-1.25,1.46-.42,2.68-.78,3.56-1.05"/><path class="cls-4" d="M207.59,73.54c1.04-.13,1.88-.29,2.47-.42,1.33-.29,2.32-.62,3.46-.99,.81-.27,1.51-.52,2.18-.76,.7-.25,1.28-.47,1.7-.63"/><path class="cls-4" d="M203.31,77.32c1.4-.18,2.54-.4,3.34-.57,1.79-.39,3.13-.83,4.66-1.33,1.1-.36,2.04-.7,2.95-1.03,.94-.34,1.72-.63,2.29-.85"/><path class="cls-4" d="M197.45,82.55c1.98-.25,3.57-.56,4.7-.81,2.52-.55,4.4-1.17,6.56-1.88,1.54-.51,2.87-.98,4.14-1.44,1.32-.48,2.43-.89,3.22-1.19"/><path class="cls-4" d="M181.28,101.74c2.54,0,4.62-.12,6.09-.25,3.29-.29,5.79-.76,8.65-1.3,2.05-.39,3.81-.78,5.51-1.15,1.76-.39,3.23-.73,4.29-.98"/><path class="cls-4" d="M210.09,71.89c-.19-.68-.3-1.24-.37-1.62-.16-.87-.2-1.51-.25-2.25-.04-.53-.05-.98-.07-1.41-.02-.45-.02-.83-.03-1.1"/><path class="cls-4" d="M197.53,83.96c-.33-1.21-.53-2.18-.66-2.86-.28-1.53-.36-2.67-.45-3.96-.07-.93-.09-1.73-.12-2.49-.03-.8-.04-1.46-.05-1.94"/><path class="cls-4" d="M201.16,79.9c-.27-.97-.43-1.74-.53-2.29-.22-1.23-.29-2.13-.36-3.18-.05-.75-.07-1.38-.1-2-.02-.64-.03-1.17-.04-1.55"/><path class="cls-4" d="M206.18,75.43c-.19-.68-.3-1.24-.37-1.62-.16-.87-.2-1.51-.25-2.25-.04-.53-.05-.98-.07-1.41-.02-.45-.02-.83-.03-1.1"/><path class="cls-4" d="M181,100.51c-.63-2.19-1.01-3.99-1.24-5.27-.52-2.86-.66-5.04-.83-7.54-.12-1.79-.17-3.34-.21-4.82-.05-1.54-.07-2.83-.08-3.77"/><path class="cls-4" d="M188.74,92.45c-.47-1.65-.75-3-.93-3.95-.39-2.14-.5-3.78-.62-5.65-.09-1.34-.12-2.5-.16-3.62-.04-1.16-.05-2.13-.06-2.83"/><path class="cls-4" d="M184.78,96.04c-.58-2.03-.93-3.69-1.14-4.87-.48-2.64-.61-4.66-.76-6.97-.11-1.66-.15-3.09-.2-4.46-.04-1.43-.06-2.62-.07-3.48"/><path class="cls-4" d="M193.04,88.49c-.43-1.49-.68-2.71-.84-3.57-.35-1.94-.45-3.42-.56-5.11-.08-1.21-.11-2.26-.14-3.27-.03-1.05-.05-1.92-.05-2.55"/></svg>