<?xml version="1.0" encoding="utf-8"?>
<!-- Generator: Adobe Illustrator 27.0.0, SVG Export Plug-In . SVG Version: 6.00 Build 0)  -->
<svg version="1.1" id="Layer_1" xmlns="http://www.w3.org/2000/svg" xmlns:xlink="http://www.w3.org/1999/xlink" x="0px" y="0px"
	 viewBox="0 0 360 360" style="enable-background:new 0 0 360 360;" xml:space="preserve">
<style type="text/css">
	.st0{fill:none;stroke:#4A3200;stroke-width:3;stroke-linecap:round;stroke-miterlimit:10;}
	.st1{fill:#EFB254;}
	.st2{fill:#3E2310;}
	.st3{fill:#6A4400;}
	.st4{fill:#82B135;}
	.st5{fill:#587400;}
</style>
<line class="st0" x1="178.7" y1="352.2" x2="170.4" y2="358.2"/>
<line class="st0" x1="175.6" y1="360" x2="178.7" y2="352.2"/>
<line class="st0" x1="181.1" y1="359.8" x2="178.7" y2="352.2"/>
<line class="st0" x1="185.8" y1="358.4" x2="178.7" y2="352.2"/>
<g>
	<ellipse class="st1" cx="179" cy="211.5" rx="137.5" ry="131.5"/>
	<ellipse class="st2" cx="213.5" cy="121.2" rx="2.4" ry="2.6"/>
	<path class="st2" d="M235.2,121.2c0,1.4-1.1,2.6-2.4,2.6c-1.3,0-2.4-1.1-2.4-2.6c0-1.4,1.1-2.6,2.4-2.6
		C234.1,118.6,235.2,119.8,235.2,121.2z"/>
	<ellipse class="st2" cx="229.5" cy="138.2" rx="2.4" ry="2.6"/>
	<path class="st3" d="M169.3,79.8c-1.2-4.6-2.3-10.4-2.8-17.3c-0.5-5.6-0.9-10.5,0-17.4c0.7-5,1.5-11.1,5.3-19.2
		c3.2-6.9,7.3-12.6,10.5-16.6"/>
	<path class="st4" d="M217.6,35.2c-11,5.6-20.3,9.1-26.8,11.3c-9.4,3.2-14.4,4.1-18.8,9.2c-0.9,1-8.2,9.7-5,18.9
		c2.9,8.6,13.2,12.7,21,11.6c8.8-1.2,13.9-8.7,17.8-14.6c4.2-6.2,6-12.3,6.9-16.1"/>
	<path class="st5" d="M182.3,74.3c2.4-0.2,4.4-0.4,5.8-0.7c3.1-0.5,5.5-1.2,8.2-1.9c1.9-0.5,3.6-1.1,5.2-1.6c1.6-0.5,3-1,4-1.3"/>
	<path class="st5" d="M217.3,35.7c-1.8,1.9-4.5,4.6-7.7,7.9c-4.2,4.4-6.4,6.6-8.2,8.5c-5.4,5.6-5.7,5.8-11.3,11.5
		c-4.5,4.6-6.7,6.9-9.6,10.1c-0.9,1.1-2.3,2.6-4,4.6c-1.8,2.1-3,4-3.1,4.5c-0.1,0.4,0.4,0.2,0.4,0.2c0.3-0.1,0.6-0.4,0.9-0.7
		c0.2-0.2,0.6-0.5,1.2-1.2c1.1-1.1,2-2.1,2.3-2.3c1.1-1.2,2-2.1,2.2-2.4c2.3-2.6,4.6-5.1,6.9-7.7c0.6-0.7,3.8-4.2,10.1-11.2
		c2.1-2.3,5.2-5.8,9-10"/>
	<path class="st5" d="M190.5,64.3c2.1-0.2,3.8-0.4,5-0.6c2.7-0.5,4.7-1.1,7-1.7c1.6-0.5,3.1-0.9,4.4-1.4c1.4-0.5,2.6-0.9,3.4-1.2"/>
	<path class="st5" d="M178.4,77.7c2.6,0,4.8-0.2,6.3-0.4c3.4-0.4,6-0.9,8.9-1.6c2.1-0.5,3.9-0.9,5.7-1.4c1.8-0.5,3.3-0.9,4.4-1.2"/>
	<path class="st5" d="M186.8,69.3c2.2-0.1,4.1-0.4,5.4-0.6c2.9-0.5,5.1-1.1,7.6-1.7c1.8-0.5,3.3-1,4.8-1.4c1.5-0.5,2.8-0.9,3.7-1.2"
		/>
	<path class="st5" d="M203.2,50c1.1-0.2,2-0.3,2.6-0.5c1.4-0.3,2.4-0.7,3.6-1.1c0.9-0.3,1.6-0.6,2.3-0.9c0.7-0.3,1.3-0.5,1.8-0.7"/>
	<path class="st5" d="M198.7,54.3c1.5-0.2,2.7-0.4,3.5-0.6c1.9-0.4,3.3-0.9,4.9-1.5c1.2-0.4,2.1-0.8,3.1-1.2c1-0.4,1.8-0.7,2.4-1"/>
	<path class="st5" d="M192.5,60.2c2.1-0.3,3.7-0.6,4.9-0.9c2.6-0.6,4.6-1.3,6.9-2.1c1.6-0.6,3-1.1,4.3-1.6c1.4-0.5,2.5-1,3.4-1.3"/>
	<path class="st5" d="M175.6,81.9c2.7,0,4.8-0.1,6.4-0.3c3.5-0.3,6.1-0.9,9.1-1.5c2.1-0.4,4-0.9,5.8-1.3c1.8-0.4,3.4-0.8,4.5-1.1"/>
	<path class="st5" d="M205.8,48.2c-0.2-0.8-0.3-1.4-0.4-1.8c-0.2-1-0.2-1.7-0.3-2.5c0-0.6-0.1-1.1-0.1-1.6c0-0.5,0-0.9,0-1.2"/>
	<path class="st5" d="M192.6,61.8c-0.4-1.4-0.6-2.5-0.7-3.2c-0.3-1.7-0.4-3-0.5-4.5c-0.1-1.1-0.1-2-0.1-2.8c0-0.9,0-1.6,0-2.2"/>
	<path class="st5" d="M196.4,57.2c-0.3-1.1-0.4-2-0.5-2.6c-0.2-1.4-0.3-2.4-0.4-3.6c-0.1-0.8-0.1-1.6-0.1-2.3c0-0.7,0-1.3,0-1.8"/>
	<path class="st5" d="M201.7,52.2c-0.2-0.8-0.3-1.4-0.4-1.8c-0.2-1-0.2-1.7-0.3-2.5c0-0.6-0.1-1.1-0.1-1.6c0-0.5,0-0.9,0-1.2"/>
	<path class="st5" d="M175.3,80.5c-0.7-2.5-1.1-4.5-1.3-5.9c-0.5-3.2-0.7-5.7-0.9-8.5c-0.1-2-0.2-3.8-0.2-5.4c0-1.7-0.1-3.2-0.1-4.3
		"/>
	<path class="st5" d="M183.4,71.4c-0.5-1.9-0.8-3.4-1-4.5c-0.4-2.4-0.5-4.3-0.7-6.4c-0.1-1.5-0.1-2.8-0.2-4.1c0-1.3-0.1-2.4-0.1-3.2
		"/>
	<path class="st5" d="M179.2,75.5c-0.6-2.3-1-4.2-1.2-5.5c-0.5-3-0.6-5.3-0.8-7.9c-0.1-1.9-0.2-3.5-0.2-5c0-1.6-0.1-3-0.1-3.9"/>
	<path class="st5" d="M187.9,66.9c-0.4-1.7-0.7-3.1-0.9-4c-0.4-2.2-0.5-3.9-0.6-5.8c-0.1-1.4-0.1-2.6-0.2-3.7c0-1.2,0-2.2-0.1-2.9"
		/>
</g>
</svg>
