<?xml version="1.0" encoding="UTF-8"?><svg id="Layer_1" xmlns="http://www.w3.org/2000/svg" width="288" height="432" viewBox="0 0 288 432"><defs><style>.cls-1{fill:none;}.cls-2{fill:#6a4400;}.cls-3{fill:#9bd400;}.cls-4{fill:#587400;}.cls-5{fill:#82b135;}</style></defs><line class="cls-1" x1="144.93" y1="424.05" x2="135.65" y2="430.65"/><line class="cls-1" x1="141.44" y1="432.68" x2="144.93" y2="424.05"/><line class="cls-1" x1="147.68" y1="432.5" x2="144.93" y2="424.05"/><line class="cls-1" x1="152.83" y1="430.92" x2="144.93" y2="424.05"/><g><path class="cls-3" d="M39,280.72c0-34.74,16.54-58.65,39.55-82.05,22.82-23.21,10.75-59.42,26.94-85.77,7.72-12.57,22.03-20.66,36.61-20.7,14.58-.04,28.93,7.98,36.72,20.51,6.23,10.02,8.21,22.07,11.32,33.49,7.27,26.69,21.37,47.13,38.18,68.31,13.52,17.04,20.69,44.73,20.69,66.22,0,57.95-47.01,104.93-105,104.93s-105-46.98-105-104.93Z"/><path class="cls-2" d="M135.86,92.94c-.88-3.76-1.74-8.49-2.17-14.06-.35-4.55-.67-8.54,.03-14.15,.5-4.04,1.15-9,4.02-15.59,2.44-5.61,5.56-10.25,8.02-13.5"/><path class="cls-5" d="M172.78,56.66c-8.42,4.53-15.5,7.41-20.48,9.22-7.19,2.61-10.98,3.35-14.36,7.49-.65,.8-6.25,7.87-3.81,15.41,2.25,6.97,10.07,10.31,16.07,9.47,6.72-.94,10.61-7.05,13.66-11.83,3.23-5.08,4.62-9.99,5.28-13.1"/><path class="cls-4" d="M145.75,88.46c1.86-.13,3.37-.36,4.43-.55,2.39-.42,4.18-.96,6.23-1.57,1.47-.44,2.74-.86,3.95-1.26,1.26-.42,2.32-.79,3.08-1.06"/><path class="cls-4" d="M172.52,57.05c-1.38,1.51-3.4,3.73-5.86,6.42-3.24,3.55-4.87,5.33-6.29,6.88-4.15,4.52-4.37,4.71-8.64,9.36-3.43,3.74-5.15,5.62-7.31,8.2-.72,.86-1.78,2.14-3.06,3.76-1.37,1.74-2.32,3.24-2.38,3.69-.05,.34,.32,.14,.32,.14,.21-.12,.46-.34,.71-.57,.17-.16,.43-.39,.96-.94,.85-.88,1.55-1.67,1.75-1.89,.85-.96,1.51-1.74,1.68-1.95,1.76-2.1,3.52-4.14,5.29-6.24,.46-.54,2.89-3.41,7.75-9.15,1.61-1.9,3.97-4.69,6.89-8.11"/><path class="cls-4" d="M152.02,80.31c1.59-.14,2.88-.35,3.79-.52,2.04-.39,3.57-.87,5.33-1.42,1.26-.39,2.34-.77,3.38-1.13,1.08-.38,1.98-.7,2.63-.94"/><path class="cls-4" d="M142.77,91.25c2-.02,3.63-.17,4.79-.31,2.59-.3,4.56-.76,6.81-1.29,1.62-.38,3.01-.75,4.35-1.11,1.39-.37,2.55-.7,3.39-.94"/><path class="cls-4" d="M149.19,84.42c1.72-.11,3.12-.31,4.1-.48,2.21-.38,3.88-.86,5.78-1.41,1.37-.4,2.54-.78,3.67-1.15,1.17-.38,2.15-.72,2.86-.96"/><path class="cls-4" d="M161.73,68.74c.83-.12,1.51-.27,1.98-.39,1.07-.27,1.86-.57,2.77-.91,.65-.24,1.21-.48,1.75-.7,.56-.23,1.02-.43,1.36-.58"/><path class="cls-4" d="M158.3,72.21c1.13-.16,2.04-.36,2.68-.53,1.44-.36,2.51-.76,3.74-1.22,.88-.33,1.64-.64,2.36-.94,.75-.31,1.38-.58,1.84-.78"/><path class="cls-4" d="M153.6,77.02c1.59-.23,2.87-.51,3.77-.74,2.02-.51,3.53-1.07,5.26-1.72,1.24-.46,2.3-.9,3.32-1.32,1.06-.44,1.95-.82,2.58-1.09"/><path class="cls-4" d="M140.62,94.63c2.04,0,3.71-.11,4.89-.23,2.64-.27,4.64-.7,6.94-1.2,1.64-.36,3.06-.71,4.42-1.06,1.41-.36,2.59-.67,3.44-.9"/><path class="cls-4" d="M163.74,67.23c-.15-.63-.24-1.13-.3-1.49-.13-.8-.16-1.39-.2-2.07-.03-.48-.04-.9-.05-1.3-.01-.41-.02-.76-.02-1.01"/><path class="cls-4" d="M153.66,78.3c-.27-1.11-.43-2-.53-2.63-.22-1.41-.29-2.45-.36-3.64-.05-.85-.07-1.59-.1-2.29-.02-.73-.03-1.34-.04-1.78"/><path class="cls-4" d="M156.58,74.58c-.21-.89-.34-1.6-.42-2.1-.18-1.13-.23-1.96-.29-2.92-.04-.68-.06-1.27-.08-1.83-.02-.59-.03-1.07-.03-1.42"/><path class="cls-4" d="M160.6,70.48c-.15-.63-.24-1.13-.3-1.49-.13-.8-.16-1.39-.2-2.07-.03-.48-.04-.9-.05-1.3-.01-.41-.02-.76-.02-1.01"/><path class="cls-4" d="M140.4,93.5c-.5-2.01-.81-3.67-.99-4.84-.42-2.62-.53-4.63-.66-6.92-.09-1.64-.13-3.06-.17-4.43-.04-1.42-.06-2.6-.06-3.46"/><path class="cls-4" d="M146.61,86.1c-.38-1.51-.61-2.75-.74-3.63-.31-1.97-.4-3.47-.5-5.19-.07-1.23-.1-2.3-.13-3.32-.03-1.06-.04-1.95-.05-2.59"/><path class="cls-4" d="M143.43,89.4c-.47-1.86-.75-3.39-.92-4.47-.38-2.43-.49-4.28-.61-6.4-.09-1.52-.12-2.83-.16-4.1-.04-1.31-.05-2.41-.06-3.2"/><path class="cls-4" d="M150.06,82.46c-.34-1.36-.55-2.49-.67-3.28-.28-1.78-.36-3.14-.45-4.69-.06-1.11-.09-2.08-.11-3-.03-.96-.04-1.76-.04-2.34"/></g></svg>