<?xml version="1.0" encoding="UTF-8"?><svg id="Layer_1" xmlns="http://www.w3.org/2000/svg" width="432" height="144" viewBox="0 0 432 144"><defs><style>.cls-1{fill:#f1a83b;}.cls-2{fill:#fff38a;}.cls-3{fill:#c97d00;}.cls-4{fill:#8a5100;}</style></defs><rect class="cls-3" x="6" y="10.01" width="408.14" height="131.99" rx="19.92" ry="19.92"/><rect class="cls-1" x="17.86" y="2" width="408.14" height="120.78" rx="19.92" ry="19.92"/><g><path class="cls-4" d="M92.77,53.18c1.04-2.51,2.64-4.37,4.8-5.58,2.16-1.21,4.61-1.81,7.36-1.81,1.99,0,3.87,.37,5.61,1.11s3.25,1.92,4.52,3.55c1.27,1.63,2.28,3.71,3.02,6.25,.75,2.54,1.12,5.61,1.12,9.2s-.41,6.83-1.22,9.39c-.81,2.56-1.92,4.65-3.34,6.25-1.41,1.6-3.08,2.77-4.99,3.51s-3.95,1.11-6.11,1.11c-1.87,0-3.6-.28-5.17-.85-1.58-.57-2.87-1.42-3.87-2.55v10.13c0,2.22,2.23,3.33,6.69,3.33v5.91h-23.5v-5.91c3.58,0,5.38-1.11,5.38-3.33V56.44c0-2.27-1.79-3.4-5.38-3.4v-5.99h14.63l.44,6.14Zm7.75,.3c-2.58,0-4.38,1.07-5.38,3.22s-1.5,5.38-1.5,9.72,.5,7.59,1.5,9.76c1,2.17,2.79,3.25,5.38,3.25s4.49-1.08,5.59-3.25c1.1-2.17,1.66-5.42,1.66-9.76s-.55-7.58-1.66-9.72c-1.1-2.14-2.97-3.22-5.59-3.22Z"/><path class="cls-4" d="M159.71,65.68c0,6.65-1.56,11.69-4.69,15.12-3.12,3.43-7.58,5.14-13.38,5.14-2.33,0-4.55-.3-6.66-.89-2.1-.59-3.95-1.61-5.53-3.07-1.58-1.45-2.84-3.42-3.78-5.91-.94-2.49-1.41-5.65-1.41-9.5,0-14,6-20.99,18-20.99,2.38,0,4.62,.31,6.75,.92,2.12,.62,3.98,1.69,5.56,3.22,1.58,1.53,2.83,3.58,3.75,6.17,.92,2.59,1.38,5.85,1.38,9.79Zm-17.56-13.53c-2.25,0-3.91,.95-4.97,2.85-1.06,1.9-1.59,5.06-1.59,9.5,0,3.06,.12,5.56,.38,7.5,.25,1.95,.62,3.47,1.12,4.58,.5,1.11,1.13,1.86,1.91,2.25,.77,.4,1.7,.59,2.78,.59,2.42,0,4.1-1.04,5.06-3.1,.96-2.07,1.44-5.49,1.44-10.27,0-2.81-.14-5.11-.41-6.91-.27-1.8-.67-3.22-1.19-4.25-.52-1.04-1.16-1.75-1.91-2.14-.75-.39-1.62-.59-2.62-.59Z"/><path class="cls-4" d="M181.08,75.29c-.08,2.21,1.69,3.32,5.31,3.32v6.06h-22.06v-6.06c3.54,0,5.31-1.1,5.31-3.32v-18.94c0-2.26-1.77-3.39-5.31-3.39v-5.91h16.75v28.25Zm.56-40.22c0,1.03-.17,2.01-.5,2.92-.33,.91-.78,1.71-1.34,2.4-.56,.69-1.23,1.23-2,1.63-.77,.4-1.59,.59-2.47,.59s-1.69-.2-2.44-.59c-.75-.39-1.42-.94-2-1.63-.58-.69-1.04-1.49-1.38-2.4-.33-.91-.5-1.88-.5-2.92s.17-2,.5-2.88c.33-.89,.79-1.66,1.38-2.33,.58-.67,1.25-1.19,2-1.59,.75-.39,1.56-.59,2.44-.59s1.7,.2,2.47,.59c.77,.4,1.44,.92,2,1.59,.56,.67,1.01,1.44,1.34,2.33,.33,.89,.5,1.85,.5,2.88Z"/><path class="cls-4" d="M231.65,75.29c0,2.21,1.79,3.32,5.38,3.32v6.06h-20.38v-6.06c2.38,0,3.56-1.1,3.56-3.32v-11.64c0-3.09-.35-5.35-1.06-6.78-.71-1.43-1.71-2.14-3-2.14-1.75,0-3.38,.81-4.88,2.43s-2.6,3.83-3.31,6.63v11.5c0,2.21,1.17,3.32,3.5,3.32v6.06h-20.25v-6.06c3.54,0,5.31-1.1,5.31-3.32v-19.02c0-2.21-1.75-3.32-5.25-3.32v-5.91h16.69l.02,7.54c1.46-2.66,3.34-4.71,5.63-6.14,2.3-1.43,4.97-2.14,8.02-2.14,3.26,0,5.74,.87,7.45,2.62,1.71,1.75,2.57,4.54,2.57,8.37v18Z"/><path class="cls-4" d="M257.34,47.05h8.19l-.31,6.28c-1.17-.3-2.4-.5-3.69-.63-1.29-.12-2.69-.19-4.19-.19v23.58c0,1.13,.18,1.97,.53,2.51,.35,.54,.97,.81,1.84,.81s1.48-.3,1.81-.89c.33-.59,.5-1.4,.5-2.44v-3.55h3.69v2.29c0,1.58-.16,2.99-.47,4.25-.31,1.26-.83,2.34-1.56,3.25-.73,.91-1.69,1.61-2.88,2.11s-2.64,.74-4.34,.74c-3.88,0-6.6-.97-8.19-2.92-1.58-1.95-2.38-4.59-2.38-7.95v-21.81h-5.38v-4.51c1.12-.1,2.24-.3,3.34-.59,1.1-.3,2.08-.81,2.94-1.55s1.54-1.77,2.06-3.1c.52-1.33,.78-3.06,.78-5.17v-1.63l7.69-.52v11.6Z"/></g><g><path class="cls-2" d="M97.07,49.32c1.04-2.51,2.64-4.37,4.8-5.58,2.16-1.21,4.61-1.81,7.36-1.81,1.99,0,3.87,.37,5.61,1.11s3.25,1.92,4.52,3.55c1.27,1.63,2.28,3.71,3.02,6.25,.75,2.54,1.12,5.61,1.12,9.2s-.41,6.83-1.22,9.39c-.81,2.56-1.92,4.65-3.34,6.25-1.41,1.6-3.08,2.77-4.99,3.51s-3.95,1.11-6.11,1.11c-1.87,0-3.6-.28-5.17-.85-1.58-.57-2.87-1.42-3.87-2.55v10.13c0,2.22,2.23,3.33,6.69,3.33v5.91h-23.5v-5.91c3.58,0,5.38-1.11,5.38-3.33V52.57c0-2.27-1.79-3.4-5.38-3.4v-5.99h14.63l.44,6.14Zm7.75,.3c-2.58,0-4.38,1.07-5.38,3.22s-1.5,5.38-1.5,9.72,.5,7.59,1.5,9.76c1,2.17,2.79,3.25,5.38,3.25s4.49-1.08,5.59-3.25c1.1-2.17,1.66-5.42,1.66-9.76s-.55-7.58-1.66-9.72c-1.1-2.14-2.97-3.22-5.59-3.22Z"/><path class="cls-2" d="M164.01,61.81c0,6.65-1.56,11.69-4.69,15.12-3.12,3.43-7.58,5.14-13.38,5.14-2.33,0-4.55-.3-6.66-.89-2.1-.59-3.95-1.61-5.53-3.07-1.58-1.45-2.84-3.42-3.78-5.91-.94-2.49-1.41-5.65-1.41-9.5,0-14,6-20.99,18-20.99,2.38,0,4.62,.31,6.75,.92,2.12,.62,3.98,1.69,5.56,3.22,1.58,1.53,2.83,3.58,3.75,6.17,.92,2.59,1.38,5.85,1.38,9.79Zm-17.56-13.53c-2.25,0-3.91,.95-4.97,2.85-1.06,1.9-1.59,5.06-1.59,9.5,0,3.06,.12,5.56,.38,7.5,.25,1.95,.62,3.47,1.12,4.58,.5,1.11,1.13,1.86,1.91,2.25,.77,.4,1.7,.59,2.78,.59,2.42,0,4.1-1.04,5.06-3.1,.96-2.07,1.44-5.49,1.44-10.27,0-2.81-.14-5.11-.41-6.91-.27-1.8-.67-3.22-1.19-4.25-.52-1.04-1.16-1.75-1.91-2.14-.75-.39-1.62-.59-2.62-.59Z"/><path class="cls-2" d="M185.39,71.43c-.08,2.21,1.69,3.32,5.31,3.32v6.06h-22.06v-6.06c3.54,0,5.31-1.1,5.31-3.32v-18.94c0-2.26-1.77-3.39-5.31-3.39v-5.91h16.75v28.25Zm.56-40.22c0,1.03-.17,2.01-.5,2.92-.33,.91-.78,1.71-1.34,2.4-.56,.69-1.23,1.23-2,1.63-.77,.4-1.59,.59-2.47,.59s-1.69-.2-2.44-.59c-.75-.39-1.42-.94-2-1.63-.58-.69-1.04-1.49-1.38-2.4-.33-.91-.5-1.88-.5-2.92s.17-2,.5-2.88c.33-.89,.79-1.66,1.38-2.33,.58-.67,1.25-1.19,2-1.59,.75-.39,1.56-.59,2.44-.59s1.7,.2,2.47,.59c.77,.4,1.44,.92,2,1.59,.56,.67,1.01,1.44,1.34,2.33,.33,.89,.5,1.85,.5,2.88Z"/><path class="cls-2" d="M235.95,71.43c0,2.21,1.79,3.32,5.38,3.32v6.06h-20.38v-6.06c2.38,0,3.56-1.1,3.56-3.32v-11.64c0-3.09-.35-5.35-1.06-6.78-.71-1.43-1.71-2.14-3-2.14-1.75,0-3.38,.81-4.88,2.43s-2.6,3.83-3.31,6.63v11.5c0,2.21,1.17,3.32,3.5,3.32v6.06h-20.25v-6.06c3.54,0,5.31-1.1,5.31-3.32v-19.02c0-2.21-1.75-3.32-5.25-3.32v-5.91h16.69l.02,7.54c1.46-2.66,3.34-4.71,5.63-6.14,2.3-1.43,4.97-2.14,8.02-2.14,3.26,0,5.74,.87,7.45,2.62,1.71,1.75,2.57,4.54,2.57,8.37v18Z"/><path class="cls-2" d="M261.64,43.19h8.19l-.31,6.28c-1.17-.3-2.4-.5-3.69-.63-1.29-.12-2.69-.19-4.19-.19v23.58c0,1.13,.18,1.97,.53,2.51,.35,.54,.97,.81,1.84,.81s1.48-.3,1.81-.89c.33-.59,.5-1.4,.5-2.44v-3.55h3.69v2.29c0,1.58-.16,2.99-.47,4.25-.31,1.26-.83,2.34-1.56,3.25-.73,.91-1.69,1.61-2.88,2.11s-2.64,.74-4.34,.74c-3.88,0-6.6-.97-8.19-2.92-1.58-1.95-2.38-4.59-2.38-7.95v-21.81h-5.38v-4.51c1.12-.1,2.24-.3,3.34-.59,1.1-.3,2.08-.81,2.94-1.55s1.54-1.77,2.06-3.1c.52-1.33,.78-3.06,.78-5.17v-1.63l7.69-.52v11.6Z"/></g></svg>