<?xml version="1.0" encoding="UTF-8"?><svg id="Layer_1" xmlns="http://www.w3.org/2000/svg" width="216" height="72" viewBox="0 0 216 72"><defs><style>.cls-1{fill:#ff5600;}.cls-2{fill:#fff38a;}.cls-3{fill:#8a2a00;}</style></defs><rect class="cls-3" x="4.19" y="10.08" width="201.43" height="60.92" rx="27.44" ry="27.44"/><rect class="cls-1" x="12.76" y="1" width="201.43" height="60.92" rx="27.44" ry="27.44"/><g><path class="cls-2" d="M55.38,29.44l-2.06,.31c-.09-1.02-.29-1.89-.6-2.63-.31-.73-.69-1.33-1.16-1.78-.47-.45-1-.78-1.6-1-.6-.21-1.26-.32-1.96-.32-.31,0-.64,.03-1.01,.08-.37,.06-.71,.18-1.03,.37-.32,.19-.59,.47-.8,.85s-.32,.88-.32,1.51c0,.54,.12,.99,.36,1.34,.24,.35,.56,.64,.96,.88,.41,.24,.88,.44,1.41,.59,.54,.16,1.1,.31,1.68,.46,.59,.15,1.19,.32,1.81,.52s1.22,.45,1.8,.75c1.1,.59,1.96,1.45,2.57,2.57,.61,1.13,.92,2.66,.92,4.61,0,1.33-.16,2.51-.48,3.52-.32,1.02-.77,1.86-1.35,2.54-.58,.68-1.27,1.19-2.07,1.54-.8,.35-1.68,.52-2.62,.52-1.13,0-2.05-.16-2.76-.47-.71-.32-1.32-.68-1.82-1.08-.35-.29-.67-.44-.94-.44-.21,0-.41,.15-.57,.44s-.31,.63-.41,1.02h-2.09v-8.94l2.06-.2c.12,1.99,.7,3.49,1.72,4.52,1.02,1.03,2.39,1.54,4.1,1.54,.47,0,.93-.04,1.36-.14,.44-.09,.82-.26,1.15-.51,.33-.25,.59-.6,.78-1.05,.19-.45,.29-1.04,.29-1.76,0-.77-.21-1.35-.62-1.74-.41-.4-.94-.71-1.59-.95-.65-.24-1.38-.43-2.19-.59-.81-.16-1.61-.39-2.41-.71-1.59-.61-2.75-1.53-3.5-2.76-.74-1.23-1.11-2.99-1.11-5.27,0-.95,.11-1.85,.32-2.71,.21-.86,.56-1.61,1.03-2.27,.47-.65,1.08-1.18,1.81-1.57,.73-.4,1.62-.59,2.66-.59,1.1,0,2,.15,2.7,.44,.7,.29,1.29,.62,1.76,.98,.17,.14,.32,.24,.45,.3,.13,.07,.26,.1,.4,.1,.32,0,.56-.11,.72-.32,.16-.21,.32-.54,.49-.97h1.76v8.47Z"/><path class="cls-2" d="M67.8,20.97c.99,0,1.88,.1,2.67,.31,.79,.2,1.45,.58,1.99,1.13,.54,.55,.96,1.3,1.24,2.25,.28,.95,.42,2.17,.42,3.66s-.14,2.76-.42,3.79c-.28,1.04-.7,1.88-1.24,2.52s-1.21,1.11-1.99,1.39c-.79,.28-1.68,.42-2.67,.42h-3.07v5.35c0,1.04,.85,1.56,2.54,1.56v2.78h-9.24v-2.78c1.36,0,2.04-.52,2.04-1.56V25.31c0-1.04-.68-1.56-2.04-1.56v-2.78h9.76Zm-3.07,3.62v8.27h1.99c1.12,0,1.89-.35,2.34-1.05,.44-.7,.67-1.86,.67-3.49,0-1.17-.22-2.09-.67-2.74-.44-.65-1.22-.98-2.34-.98h-1.99Z"/><path class="cls-2" d="M84.78,23.75c-1.36,0-2.04,.52-2.04,1.56v16.5c0,1.04,.68,1.56,2.04,1.56v2.78h-8.75v-2.78c1.38,0,2.06-.52,2.06-1.56V25.31c0-1.04-.69-1.56-2.06-1.56v-2.78h8.75v2.78Z"/><path class="cls-2" d="M95.97,23.75c-1.7,0-2.54,.52-2.54,1.56v17.38h3.92c.98,0,1.75-.48,2.3-1.44,.56-.96,.91-2.62,1.04-5l2.04,.24-.55,9.65h-15.45v-2.78c1.36,0,2.04-.52,2.04-1.56V25.31c0-1.04-.68-1.56-2.04-1.56v-2.78h9.24v2.78Z"/><path class="cls-2" d="M121.31,23.75c-1.36,0-2.04,.52-2.04,1.56v16.5c0,1.04,.68,1.56,2.04,1.56v2.78h-8.75v-2.78c1.38,0,2.06-.52,2.06-1.56V25.31c0-1.04-.69-1.56-2.06-1.56v-2.78h8.75v2.78Z"/><path class="cls-2" d="M139.37,29.24l-2.31,.3c-.23-1.76-.7-3.13-1.41-4.12-.71-.98-1.65-1.47-2.81-1.47-1.71,0-2.93,.84-3.67,2.51-.73,1.67-1.1,4.02-1.1,7.05,0,1.92,.11,3.48,.32,4.69,.21,1.21,.52,2.15,.93,2.83,.4,.68,.89,1.14,1.46,1.39,.57,.25,1.19,.37,1.88,.37,.5,0,.98-.08,1.43-.25,.45-.17,.85-.41,1.2-.71,.35-.3,.63-.68,.84-1.12,.21-.44,.31-.94,.31-1.51v-1.63c0-1.04-.69-1.56-2.06-1.56v-2.78h7.54v2.78c-1.38,0-2.06,.52-2.06,1.56v8.57h-2.84l-.48-2.1c-.17,.32-.4,.63-.7,.95-.3,.32-.66,.6-1.1,.85s-.94,.45-1.51,.61c-.57,.16-1.21,.24-1.91,.24-1.01,0-1.99-.23-2.96-.68-.96-.45-1.82-1.19-2.58-2.22-.76-1.03-1.36-2.38-1.82-4.06-.46-1.68-.69-3.74-.69-6.18s.23-4.31,.68-5.96c.45-1.65,1.06-3,1.82-4.06,.76-1.06,1.65-1.84,2.66-2.34,1.01-.5,2.06-.75,3.16-.75,1.19,0,2.21,.21,3.05,.63,.84,.42,1.5,.97,1.99,1.64l.5-1.73h2.25v8.27Z"/><path class="cls-2" d="M159.26,28.59l-2.29,.17c-.09-2.89-.95-4.34-2.57-4.34h-4.31v7.08h1.74c.72,0,1.15-1.26,1.28-3.79h2.02l-.34,10.57h-1.97c-.17-2.62-.55-3.93-1.15-3.93h-1.58v8.33h3.48c2.41,0,3.71-2.15,3.9-6.44l2.34,.24-.55,9.65h-15.86v-2.78c1.36,0,2.04-.52,2.04-1.56V25.31c0-1.04-.68-1.56-2.04-1.56v-2.78h15.86v7.62Z"/><path class="cls-2" d="M180.96,23.75c-1.36,0-2.04,.52-2.04,1.56v20.83h-5.55l-7.17-18.97v14.63c0,1.04,.68,1.56,2.04,1.56v2.78h-6.53v-2.78c1.36,0,2.04-.52,2.04-1.56V25.31c0-1.04-.68-1.56-2.04-1.56v-2.78h7.45l7.33,19.44v-15.11c0-1.04-.68-1.56-2.04-1.56v-2.78h6.51v2.78Z"/></g></svg>