<?xml version="1.0" encoding="UTF-8"?><svg id="Layer_1" xmlns="http://www.w3.org/2000/svg" width="216" height="72" viewBox="0 0 216 72"><defs><style>.cls-1{fill:#fff38a;}.cls-2{fill:#96bf00;}.cls-3{fill:#2d5f00;}</style></defs><rect class="cls-3" x="3" y="11.7" width="199.43" height="59.3" rx="29.2" ry="29.2"/><rect class="cls-2" x="13.57" y="1" width="199.43" height="59.3" rx="29.2" ry="29.2"/><g><path class="cls-1" d="M54.51,23.55l-2.24,.32c-.1-1.08-.32-2.02-.65-2.8-.33-.78-.75-1.41-1.25-1.9-.5-.48-1.08-.84-1.74-1.06-.65-.23-1.36-.34-2.12-.34-.33,0-.7,.03-1.09,.09-.4,.06-.77,.19-1.12,.4s-.64,.51-.87,.9c-.23,.4-.35,.93-.35,1.61,0,.58,.13,1.05,.39,1.43,.26,.37,.6,.69,1.04,.94,.44,.25,.95,.46,1.53,.63,.58,.17,1.19,.33,1.83,.49,.64,.16,1.29,.34,1.96,.56s1.32,.48,1.95,.79c1.19,.63,2.12,1.54,2.78,2.74,.66,1.2,.99,2.84,.99,4.91,0,1.42-.17,2.67-.52,3.75-.35,1.08-.84,1.99-1.47,2.71-.63,.72-1.38,1.27-2.25,1.64-.87,.37-1.82,.56-2.84,.56-1.23,0-2.22-.17-2.99-.51-.77-.34-1.43-.72-1.97-1.16-.38-.31-.72-.47-1.02-.47-.23,0-.44,.16-.62,.47-.18,.31-.33,.67-.45,1.08h-2.26v-9.53l2.24-.22c.13,2.12,.75,3.73,1.86,4.82,1.11,1.1,2.59,1.64,4.45,1.64,.51,0,1.01-.05,1.48-.14,.47-.1,.89-.28,1.24-.54,.36-.26,.64-.64,.84-1.12,.21-.48,.31-1.11,.31-1.88,0-.82-.22-1.44-.67-1.86-.45-.42-1.02-.76-1.73-1.01s-1.5-.46-2.37-.63c-.88-.17-1.75-.42-2.61-.76-1.72-.65-2.99-1.63-3.79-2.94-.8-1.31-1.21-3.18-1.21-5.61,0-1.01,.12-1.97,.35-2.89,.23-.91,.6-1.72,1.12-2.42,.51-.7,1.17-1.26,1.96-1.68,.79-.42,1.76-.63,2.88-.63,1.19,0,2.17,.16,2.93,.47,.76,.31,1.4,.66,1.91,1.05,.18,.14,.34,.25,.48,.33,.14,.07,.29,.11,.43,.11,.35,0,.61-.11,.78-.34,.17-.23,.35-.57,.53-1.03h1.91v9.03Z"/><path class="cls-1" d="M67.97,14.52c1.08,0,2.04,.11,2.89,.32,.85,.22,1.57,.62,2.16,1.21,.59,.59,1.04,1.39,1.34,2.4,.31,1.01,.46,2.31,.46,3.9s-.15,2.94-.46,4.04c-.31,1.11-.75,2-1.34,2.69s-1.31,1.18-2.16,1.48c-.85,.3-1.82,.45-2.89,.45h-3.33v5.7c0,1.11,.92,1.66,2.76,1.66v2.96h-10.01v-2.96c1.47,0,2.21-.55,2.21-1.66V19.14c0-1.11-.74-1.66-2.21-1.66v-2.96h10.58Zm-3.33,3.86v8.81h2.16c1.21,0,2.05-.37,2.53-1.12s.72-1.99,.72-3.72c0-1.25-.24-2.23-.72-2.92s-1.33-1.05-2.53-1.05h-2.16Z"/><path class="cls-1" d="M86.38,17.48c-1.47,0-2.21,.55-2.21,1.66v17.58c0,1.11,.74,1.66,2.21,1.66v2.96h-9.49v-2.96c1.49,0,2.24-.55,2.24-1.66V19.14c0-1.11-.75-1.66-2.24-1.66v-2.96h9.49v2.96Z"/><path class="cls-1" d="M98.51,17.48c-1.84,0-2.76,.55-2.76,1.66v18.52h4.25c1.06,0,1.89-.51,2.5-1.53,.6-1.02,.98-2.8,1.13-5.33l2.21,.25-.6,10.29h-16.75v-2.96c1.47,0,2.21-.55,2.21-1.66V19.14c0-1.11-.74-1.66-2.21-1.66v-2.96h10.01v2.96Z"/><path class="cls-1" d="M125.99,17.48c-1.47,0-2.21,.55-2.21,1.66v17.58c0,1.11,.74,1.66,2.21,1.66v2.96h-9.49v-2.96c1.49,0,2.24-.55,2.24-1.66V19.14c0-1.11-.75-1.66-2.24-1.66v-2.96h9.49v2.96Z"/><path class="cls-1" d="M145.57,23.33l-2.51,.33c-.25-1.88-.76-3.34-1.53-4.39-.77-1.05-1.79-1.57-3.04-1.57-1.86,0-3.18,.89-3.98,2.67-.79,1.78-1.19,4.28-1.19,7.51,0,2.05,.12,3.71,.35,5,.23,1.29,.57,2.29,1.01,3.01,.44,.72,.96,1.22,1.58,1.48,.61,.27,1.29,.4,2.04,.4,.55,0,1.06-.09,1.55-.27,.49-.18,.92-.43,1.3-.76,.38-.32,.68-.72,.91-1.19,.22-.47,.33-1,.33-1.61v-1.73c0-1.11-.75-1.66-2.24-1.66v-2.96h8.17v2.96c-1.49,0-2.24,.55-2.24,1.66v9.13h-3.08l-.52-2.24c-.18,.34-.43,.67-.76,1.01-.32,.34-.72,.64-1.19,.9-.47,.27-1.02,.48-1.64,.65s-1.31,.25-2.08,.25c-1.09,0-2.16-.24-3.21-.72-1.04-.48-1.97-1.27-2.79-2.36-.82-1.09-1.48-2.54-1.97-4.33-.5-1.79-.75-3.99-.75-6.59s.24-4.6,.73-6.35c.49-1.76,1.15-3.2,1.98-4.33,.83-1.13,1.79-1.96,2.88-2.49,1.09-.53,2.24-.79,3.43-.79,1.29,0,2.39,.22,3.3,.67,.91,.45,1.63,1.03,2.16,1.75l.55-1.84h2.43v8.81Z"/><path class="cls-1" d="M167.13,22.65l-2.48,.18c-.1-3.08-1.03-4.62-2.78-4.62h-4.67v7.55h1.89c.78,0,1.24-1.35,1.39-4.04h2.19l-.37,11.26h-2.14c-.18-2.79-.6-4.19-1.24-4.19h-1.71v8.88h3.78c2.62,0,4.02-2.29,4.22-6.86l2.53,.25-.6,10.29h-17.19v-2.96c1.47,0,2.21-.55,2.21-1.66V19.14c0-1.11-.74-1.66-2.21-1.66v-2.96h17.19v8.12Z"/><path class="cls-1" d="M190.66,17.48c-1.47,0-2.21,.55-2.21,1.66v22.2h-6.01l-7.78-20.22v15.6c0,1.11,.74,1.66,2.21,1.66v2.96h-7.08v-2.96c1.47,0,2.21-.55,2.21-1.66V19.14c0-1.11-.74-1.66-2.21-1.66v-2.96h8.08l7.95,20.72V19.14c0-1.11-.74-1.66-2.21-1.66v-2.96h7.06v2.96Z"/></g></svg>